<svg xmlns="http://www.w3.org/2000/svg" xmlns:xlink="http://www.w3.org/1999/xlink" width="20" height="17" viewBox="0 0 20 17"><defs><path id="89oga" d="M206.21 488.05c-.99-.54-1.48-1.24-1.48-2.11 0-.94.47-1.78 1.43-2.5.95-.74 2.1-1.1 3.47-1.1h.85c-.44-.44-.67-.9-.67-1.37 0-.3.08-.6.23-.93a3.7 3.7 0 0 1-3.17-1.02 3.5 3.5 0 0 1-1.07-2.58c0-.96.44-1.81 1.32-2.54a4.6 4.6 0 0 1 3.03-1.1h4.97l-1.11.82h-1.6c.5.2.89.56 1.17 1.1.28.53.43 1.12.43 1.76 0 .99-.47 1.85-1.41 2.6-.4.3-.65.53-.76.72a1.3 1.3 0 0 0-.17.68c0 .23.14.5.43.8.28.31.57.57.87.76.64.47 1.1.95 1.35 1.43.26.49.4 1.08.4 1.8 0 .97-.45 1.8-1.33 2.52a5.5 5.5 0 0 1-3.58 1.08 7.37 7.37 0 0 1-3.6-.82zm6.03-11.46a3.92 3.92 0 0 0-.96-2.15c-.53-.6-1.12-.9-1.76-.93a1.65 1.65 0 0 0-1.53.82c-.37.57-.5 1.27-.39 2.11a4 4 0 0 0 .97 2.17c.53.6 1.11.92 1.74.95.63.02 1.14-.26 1.53-.84.38-.58.51-1.29.4-2.13zm-4.64 7c-.73.5-1.1 1.11-1.1 1.83s.32 1.34.96 1.86c.63.51 1.41.77 2.35.77 2.4 0 3.6-.85 3.6-2.56l-.03-.52a1.32 1.32 0 0 0-.32-.63 10 10 0 0 1-.22-.26 1.54 1.54 0 0 0-.32-.26c-.15-.1-.26-.17-.33-.24a5.9 5.9 0 0 0-.4-.28 8.36 8.36 0 0 1-.42-.3 4.35 4.35 0 0 0-3.77.58zm16.13-7.26v1.19h-3.56v3.6h-1.19v-3.6h-3.56v-1.19h3.56v-3.53h1.19v3.53z"/></defs><g><g transform="translate(-204 -472)"><use fill="#fff" xlink:href="#89oga"/></g></g></svg>