<svg xmlns="http://www.w3.org/2000/svg" xmlns:xlink="http://www.w3.org/1999/xlink" width="16" height="19" viewBox="0 0 16 19"><defs><path id="w55ha" d="M586.13 1033.43h3.53v13.06h-3.53zm11.75.07a5.1 5.1 0 0 1 2.49 1.2c.36.34.67.82.95 1.45.27.64.4 1.38.4 2.25v8.09h-3.75v-8.24c0-.5-.14-.89-.42-1.19-.29-.3-.73-.44-1.32-.44-.35 0-.65.06-.9.18-.27.13-.45.26-.57.4-.1.13-.2.3-.26.5s-.09.33-.09.4v8.39h-3.52v-13.06h3.52v1.04l.5-.41a12.08 12.08 0 0 1 .65-.35 7.83 7.83 0 0 1 .84-.25 6.8 6.8 0 0 1 1.48.04zm-10-4.82c.5 0 .91.17 1.26.52.35.34.52.76.52 1.26s-.17.91-.52 1.26-.77.52-1.26.52c-.5 0-.92-.17-1.26-.52a1.71 1.71 0 0 1-.52-1.26c0-.5.17-.92.52-1.26.34-.35.76-.52 1.26-.52z"/></defs><g><g transform="translate(-586 -1028)"><use fill="#fff" xlink:href="#w55ha"/></g></g></svg>