<svg xmlns="http://www.w3.org/2000/svg" xmlns:xlink="http://www.w3.org/1999/xlink" width="11" height="7" viewBox="0 0 11 7"><defs><path id="ttlra" d="M1692.97 138.46a.78.78 0 0 0 0-1.08l-4.73-4.86a.73.73 0 0 0-1.05 0 .78.78 0 0 0 0 1.08l4.73 4.86c.3.3.76.3 1.05 0z"/><path id="ttlrb" d="M1692.02 138.46a.78.78 0 0 1 0-1.08l4.73-4.86c.3-.3.76-.3 1.05 0 .3.3.3.78 0 1.08l-4.73 4.86c-.29.3-.76.3-1.05 0z"/></defs><g><g transform="translate(-1687 -132)"><use fill="#fff" xlink:href="#ttlra"/></g><g transform="translate(-1687 -132)"><use fill="#fff" xlink:href="#ttlrb"/></g></g></svg>