<svg xmlns="http://www.w3.org/2000/svg" xmlns:xlink="http://www.w3.org/1999/xlink" width="21" height="20" viewBox="0 0 21 20"><defs><path id="kzeua" d="M489.15 1031.13l-3.4 12.44-.24.9c-.13.48-.38 1.35-1.39 1.35a1.34 1.34 0 0 1-.7-.2l-1.04-.42-2.22-.9-.45-.18c-.04.49-.28.87-.39 1.03-1.38 2.26-1.63 2.67-2.48 2.67-.55 0-1.05-.36-1.25-.87a168.57 168.57 0 0 0-1.35-3.04c-.34-.81-.32-1.57.05-2.13l.09-.1-.21.01c-.46 0-.89-.07-1.27-.22l-2.01-.8c-1.17-.46-1.34-1.33-1.36-1.68-.02-.35.06-1.24 1.18-1.82l15.72-8.22c.36-.2.73-.3 1.08-.3.55 0 1.05.25 1.37.66.21.28.53.88.27 1.82zm-11.53 12.17l-.1-.04-.04-.02c-.2-.08-.37-.17-.53-.28l-.97-.5a.85.85 0 0 0-.3-.08c-.4 0-.44.47-.22 1.03a174.78 174.78 0 0 0 1.38 3.08c.1 0 1.36-2.04 1.36-2.04.4-.61.17-.75-.58-1.15zm9.9-13.32c-.14 0-.3.04-.48.14l-15.72 8.22c-.64.34-.62.83.06 1.1l2 .8a2.55 2.55 0 0 0 2.28-.33l8.72-6.86c.26-.2.41-.3.46-.3.06 0-.04.15-.32.45l-6.89 7.36c-.42.44-.38.96.03 1.27l.42.22.11.04c.68.27 1.8.7 2.47.98l2.22.9a66.01 66.01 0 0 1 1.24.53l.36-1.28 3.39-12.44c.14-.5-.02-.8-.36-.8z"/></defs><g><g transform="translate(-469 -1028)"><use fill="#fff" xlink:href="#kzeua"/></g></g></svg>