<svg xmlns="http://www.w3.org/2000/svg" xmlns:xlink="http://www.w3.org/1999/xlink" width="52" height="46" viewBox="0 0 52 46"><defs><path id="1dlra" d="M1658.41 248.36l48.44-18.67a1.4 1.4 0 0 1 1.86 1.58l-8.7 41.77a1.4 1.4 0 0 1-2.17.84l-11.87-8.6c-.72-.53-1.7-.5-2.39.06l-6.58 5.36c-.76.63-1.91.28-2.2-.66l-4.57-14.68-11.8-4.4a1.39 1.39 0 0 1-.02-2.6zm14.64 7.27l2.49 8.75c.18.62 1.08.56 1.16-.08l.65-4.8c.12-.9.56-1.74 1.23-2.36l19.03-17.68c.36-.33-.07-.9-.49-.64l-23.06 14.2a2.32 2.32 0 0 0-1.01 2.6z"/></defs><g><g transform="translate(-1657 -229)"><use fill="#fff" xlink:href="#1dlra"/></g></g></svg>