<svg xmlns="http://www.w3.org/2000/svg" xmlns:xlink="http://www.w3.org/1999/xlink" width="21" height="20" viewBox="0 0 21 20"><defs><path id="k7p8a" d="M224.15 415.13l-3.4 12.44-.24.91c-.13.47-.38 1.34-1.39 1.34a1.34 1.34 0 0 1-.7-.2l-1.04-.42-2.22-.9-.45-.18c-.04.49-.28.87-.39 1.04-1.38 2.25-1.63 2.66-2.48 2.66-.55 0-1.05-.35-1.25-.87-.08-.2-.74-1.69-1.34-3l-.01-.04c-.34-.81-.32-1.57.05-2.13l.09-.1-.21.02c-.46 0-.89-.08-1.27-.23l-2-.8c-1.18-.46-1.35-1.33-1.37-1.68-.02-.35.06-1.23 1.18-1.82l15.72-8.22c.36-.2.73-.3 1.08-.3.55 0 1.05.25 1.37.67.21.27.53.87.27 1.81zm-11.53 12.17l-.1-.04-.04-.02c-.2-.08-.37-.17-.53-.28l-.97-.5a.85.85 0 0 0-.3-.08c-.4 0-.44.48-.22 1.03a174.45 174.45 0 0 0 1.38 3.08c.1 0 1.36-2.04 1.36-2.04.4-.61.17-.75-.58-1.15zm9.9-13.32c-.14 0-.3.04-.48.14l-15.72 8.22c-.64.34-.62.84.06 1.1l2 .8a2.55 2.55 0 0 0 2.28-.33l8.72-6.86c.26-.2.41-.3.46-.3.06 0-.04.16-.32.45l-6.89 7.36c-.42.44-.38.96.03 1.27l.42.22.11.05 2.47.97 2.22.9a65.94 65.94 0 0 1 1.24.53l.36-1.27 3.39-12.45c.14-.5-.02-.8-.36-.8z"/></defs><g><g transform="translate(-204 -412)"><use fill="#fff" xlink:href="#k7p8a"/></g></g></svg>