<svg xmlns="http://www.w3.org/2000/svg" xmlns:xlink="http://www.w3.org/1999/xlink" width="19" height="16" viewBox="0 0 19 16"><defs><path id="1nl6a" d="M220.87 361.49c.77-.1 1.5-.31 2.23-.63a7.97 7.97 0 0 1-1.93 2.04v.48c0 1.31-.25 2.62-.75 3.92-.5 1.3-1.2 2.48-2.1 3.56a10.03 10.03 0 0 1-3.5 2.61c-1.44.67-3.02 1-4.75 1-2.16 0-4.15-.57-5.98-1.74.32.03.63.04.93.04 1.8 0 3.41-.56 4.82-1.67-.84 0-1.59-.25-2.24-.76a4.08 4.08 0 0 1-1.4-1.95 4.97 4.97 0 0 0 1.78-.04 3.86 3.86 0 0 1-2.24-1.37 3.78 3.78 0 0 1-.87-2.45v-.07c.54.32 1.13.48 1.75.48a3.65 3.65 0 0 1-1.75-3.23c0-.71.19-1.37.56-1.96a10.78 10.78 0 0 0 8.02 4.08 3.75 3.75 0 0 1 1.04-3.64 3.75 3.75 0 0 1 2.74-1.15c1.14 0 2.1.4 2.86 1.22.89-.17 1.72-.48 2.49-.92-.3.91-.87 1.63-1.71 2.15z"/></defs><g><g transform="translate(-204 -359)"><use fill="#fff" xlink:href="#1nl6a"/></g></g></svg>