<svg xmlns="http://www.w3.org/2000/svg" xmlns:xlink="http://www.w3.org/1999/xlink" width="17" height="19" viewBox="0 0 17 19"><defs><path id="vtbla" d="M651.07 1041.45c.27 0 .41.23.41.7v2.24c0 .48-.14.71-.41.71-.16 0-.32-.07-.48-.23v-3.2c.16-.15.32-.22.48-.22zm4 .72v.48h-.96v-.48c0-.48.16-.72.48-.72.32 0 .48.24.48.72zm-10.25-2.31h1.14v-1h-3.31v1h1.11v6.03h1.06zm3.06 6.03h.94v-5.24h-.94v4c-.22.3-.42.45-.6.45-.14 0-.21-.07-.23-.22l-.01-.37v-3.86h-.95v4.15c0 .34.03.6.09.77.08.26.29.4.61.4.34 0 .7-.22 1.09-.65zm4.45-.51c.06-.2.1-.55.1-1.06v-2.09c0-.52-.04-.87-.1-1.05-.12-.4-.37-.6-.75-.6-.36 0-.69.2-.99.58v-2.3h-.94v7.03h.94v-.51c.32.39.65.58.99.58.38 0 .63-.2.75-.58zm3.66-.55c.01-.07.02-.27.02-.62v-.14h-.96c0 .37-.01.58-.03.65-.05.26-.19.38-.42.38-.33 0-.49-.24-.49-.73v-.92h1.9v-1.1c0-.55-.1-.96-.29-1.22a1.34 1.34 0 0 0-1.12-.54c-.48 0-.86.18-1.14.54-.2.26-.3.67-.3 1.23v1.83c0 .56.11.97.32 1.23.27.36.65.54 1.14.54.51 0 .9-.19 1.15-.56.12-.2.2-.38.22-.57zm-6.43-10.3v-2.22c0-.49-.15-.73-.45-.73-.3 0-.46.24-.46.73v2.22c0 .5.15.75.46.75.3 0 .45-.25.45-.75zm7.35 4.25c.19.8.28 2.03.28 3.71 0 1.66-.1 2.9-.28 3.72-.1.41-.3.76-.61 1.04-.31.29-.68.45-1.09.5-1.3.14-3.26.22-5.88.22s-4.59-.08-5.89-.23c-.4-.04-.77-.2-1.08-.49a1.94 1.94 0 0 1-.61-1.04c-.19-.8-.28-2.03-.28-3.72 0-1.65.1-2.88.28-3.7a2.02 2.02 0 0 1 1.7-1.55 59.5 59.5 0 0 1 5.88-.21c2.62 0 4.58.07 5.88.2.41.06.78.22 1.1.5.3.29.51.64.6 1.05zm-10.3-9.81h1.08l-1.29 4.23v2.87h-1.06v-2.87c-.1-.52-.31-1.27-.65-2.25l-.69-1.98h1.13l.75 2.79zm3.62 2.29c.2.26.3.67.3 1.24v1.85c0 .58-.1 1-.3 1.25a1.3 1.3 0 0 1-1.12.55c-.48 0-.85-.19-1.12-.55-.2-.26-.3-.68-.3-1.25v-1.85c0-.57.1-.98.3-1.24.27-.36.64-.54 1.12-.54.48 0 .86.18 1.12.54zm3.85-.48v5.29h-.96v-.58c-.38.44-.74.66-1.1.66-.32 0-.53-.14-.62-.4a2.7 2.7 0 0 1-.09-.8v-4.17h.97v4.26c.03.16.1.24.23.24.2 0 .4-.16.6-.46v-4.04z"/></defs><g><g transform="translate(-641 -1029)"><use fill="#fff" xlink:href="#vtbla"/></g></g></svg>