<svg xmlns="http://www.w3.org/2000/svg" xmlns:xlink="http://www.w3.org/1999/xlink" width="17" height="19" viewBox="0 0 17 19"><defs><path id="mujha" d="M216.07 590.45c.27 0 .41.23.41.7v2.24c0 .48-.14.71-.41.71-.16 0-.32-.07-.48-.23v-3.19c.16-.16.32-.23.48-.23zm4 .72v.48h-.96v-.48c0-.48.16-.72.48-.72.32 0 .48.24.48.72zm-10.25-2.31h1.14v-1h-3.31v1h1.11v6.03h1.06zm3.06 6.03h.94v-5.24h-.94v4c-.22.3-.42.45-.6.45-.14 0-.21-.07-.23-.22l-.01-.37v-3.86h-.95v4.15c0 .34.03.6.09.77.08.26.29.4.61.4.34 0 .7-.22 1.09-.65zm4.45-.51c.06-.2.1-.54.1-1.06v-2.09c0-.51-.04-.86-.1-1.05-.12-.4-.37-.6-.75-.6-.36 0-.69.2-.99.58v-2.3h-.94v7.03h.94v-.51c.32.39.65.58.99.58.38 0 .63-.2.75-.58zm3.66-.55c.01-.07.02-.27.02-.62v-.13h-.96c0 .36-.01.57-.03.64-.05.26-.19.38-.42.38-.33 0-.49-.24-.49-.73v-.92h1.9v-1.1c0-.55-.1-.96-.29-1.22a1.34 1.34 0 0 0-1.12-.54c-.48 0-.86.18-1.14.54-.2.26-.3.67-.3 1.23v1.83c0 .56.11.97.32 1.23.27.36.65.54 1.14.54.51 0 .9-.18 1.15-.56.12-.2.2-.38.22-.57zm-6.43-10.3v-2.22c0-.49-.15-.73-.45-.73-.3 0-.46.24-.46.73v2.23c0 .49.15.74.46.74.3 0 .45-.25.45-.74zm7.35 4.26c.19.79.28 2.02.28 3.7 0 1.66-.1 2.9-.28 3.72-.1.41-.3.76-.61 1.05-.31.28-.68.44-1.09.48-1.3.15-3.26.23-5.88.23s-4.59-.08-5.89-.23a1.94 1.94 0 0 1-1.7-1.54c-.18-.78-.27-2.02-.27-3.7 0-1.66.1-2.9.28-3.71a2.02 2.02 0 0 1 1.7-1.55c1.3-.14 3.26-.21 5.88-.21s4.58.07 5.88.2c.41.06.78.22 1.1.5.3.29.51.64.6 1.06zm-10.3-9.82h1.08l-1.29 4.23v2.87h-1.06v-2.87c-.1-.52-.31-1.27-.65-2.25-.26-.73-.49-1.39-.68-1.98h1.12l.75 2.79zm3.62 2.29c.2.26.3.67.3 1.24v1.85c0 .58-.1 1-.3 1.26a1.3 1.3 0 0 1-1.12.54c-.48 0-.85-.18-1.12-.54-.2-.27-.3-.69-.3-1.26v-1.85c0-.57.1-.98.3-1.24.27-.36.64-.54 1.12-.54.48 0 .86.18 1.12.54zm3.85-.48v5.3h-.96v-.6c-.38.45-.74.67-1.1.67-.32 0-.53-.13-.62-.4a2.7 2.7 0 0 1-.09-.8v-4.17h.97v4.26c.03.16.1.24.23.24.2 0 .4-.15.6-.46v-4.04z"/></defs><g><g transform="translate(-206 -578)"><use fill="#fff" xlink:href="#mujha"/></g></g></svg>